<?xml version="1.0" standalone="no"?>
<svg viewBox="0 0 200 200" xmlns="http://www.w3.org/2000/svg">
  <path fill="#39A0ED" d="M38.4,-56.5C51.4,-51.3,64.8,-43.5,72.5,-31.6C80.2,-19.7,82.3,-3.8,79.9,11.3C77.4,26.4,70.4,40.7,59.7,50C48.9,59.2,34.4,63.5,19.9,67.8C5.3,72.2,-9.3,76.7,-21.8,73.4C-34.4,70.2,-45.1,59.2,-52.1,47.3C-59.1,35.3,-62.5,22.4,-67.9,7.6C-73.4,-7.1,-80.9,-23.8,-77.6,-37.3C-74.3,-50.8,-60.2,-61.3,-45.5,-65.7C-30.7,-70,-15.4,-68.4,-1.3,-66.3C12.7,-64.2,25.4,-61.7,38.4,-56.5Z" transform="translate(100 100)" />
</svg>
